<svg xmlns="http://www.w3.org/2000/svg" xmlns:xlink="http://www.w3.org/1999/xlink" viewBox="0 0 361.65 104.5" aria-label="Bigbank logo"><defs><path id="SVGID_1_" d="M79.76 73.9c0 4.69-.85 8.85-2.54 12.49-1.7 3.64-3.99 6.73-6.88 9.27-2.89 2.54-6.2 4.46-9.94 5.76-3.74 1.29-7.65 1.94-11.74 1.94H8.13c-1.39 0-2.32-.3-2.77-.9-.45-.6-.67-1.4-.67-2.39V7.36c0-1 .22-1.79.67-2.39.45-.6 1.32-.9 2.62-.9l37.98-.15c10.27 0 18.02 2.47 23.25 7.4 5.24 4.93 7.85 11.69 7.85 20.26 0 1.19-.15 2.64-.45 4.33-.3 1.7-.82 3.44-1.57 5.24-.75 1.79-1.85 3.54-3.29 5.23-1.45 1.7-3.26 3.09-5.46 4.19l.15.6c2.89 1.1 5.21 2.59 6.95 4.48 1.74 1.9 3.09 3.94 4.04 6.13.95 2.19 1.57 4.36 1.87 6.51.31 2.15.46 4.02.46 5.61z"></path><clipPath id="SVGID_2_"><use xlink:href="#SVGID_1_" overflow="visible"></use></clipPath><radialGradient id="SVGID_3_" cx="89.3921" cy="61.663" r="73.2962" gradientUnits="userSpaceOnUse"><stop offset=".3805" stop-color="#3cc88c"></stop><stop offset="1" stop-color="#005876"></stop></radialGradient><radialGradient id="SVGID_4_" cx="-8.7241" cy="10.8662" r="73.2962" gradientUnits="userSpaceOnUse"><stop offset=".4734" stop-color="#00c8b4"></stop><stop offset=".5679" stop-color="#00c4b2"></stop><stop offset=".669" stop-color="#00b7aa"></stop><stop offset=".7732" stop-color="#00a19f"></stop><stop offset=".8795" stop-color="#00838e"></stop><stop offset=".9865" stop-color="#005d79"></stop><stop offset="1" stop-color="#005876"></stop></radialGradient></defs><path d="M79.76 73.9c0 4.69-.85 8.85-2.54 12.49-1.7 3.64-3.99 6.73-6.88 9.27-2.89 2.54-6.2 4.46-9.94 5.76-3.74 1.29-7.65 1.94-11.74 1.94H8.13c-1.39 0-2.32-.3-2.77-.9-.45-.6-.67-1.4-.67-2.39V7.36c0-1 .22-1.79.67-2.39.45-.6 1.32-.9 2.62-.9l37.98-.15c10.27 0 18.02 2.47 23.25 7.4 5.24 4.93 7.85 11.69 7.85 20.26 0 1.19-.15 2.64-.45 4.33-.3 1.7-.82 3.44-1.57 5.24-.75 1.79-1.85 3.54-3.29 5.23-1.45 1.7-3.26 3.09-5.46 4.19l.15.6c2.89 1.1 5.21 2.59 6.95 4.48 1.74 1.9 3.09 3.94 4.04 6.13.95 2.19 1.57 4.36 1.87 6.51.31 2.15.46 4.02.46 5.61z" fill="#66ccc6"></path><path d="M162.69 61.66c0 40.48-32.82 73.3-73.29 73.3-40.48 0-73.3-32.82-73.3-73.3s32.82-73.29 73.3-73.29c40.47 0 73.29 32.81 73.29 73.29z" clip-path="url(#SVGID_2_)" fill="url(#SVGID_3_)"></path><path d="M64.57 10.86c0 40.48-32.82 73.3-73.3 73.3s-73.3-32.82-73.3-73.3 32.82-73.29 73.3-73.29c40.49 0 73.3 32.81 73.3 73.29z" opacity=".6" clip-path="url(#SVGID_2_)" fill="url(#SVGID_4_)"></path><path d="M135.13 53.65v-2.17c5.49-.98 9.87-3.63 9.87-10.6 0-8.03-4.27-11.92-14.8-11.92h-22.83c-.59 0-1.11.48-1.11 1.07v46.51c0 .59.51 1.09 1.11 1.09h21.91c11.18 0 17.36-3.9 17.36-12.71.01-7.76-4.51-10.61-11.51-11.27zm-19.38-17.9h12.68c4.87 0 7.11 1.98 7.11 6.58 0 5-2.56 6.78-7.56 6.98l-12.23.53V35.75zm12.36 35.1h-12.35V55.83l12.36.39c7.04.2 8.81 2.32 8.81 7.71-.01 4.02-2.18 6.92-8.82 6.92zM159.16 28.1h-5.53c-1.05 0-1.59.48-1.59 1.54v7.44c0 1.05.54 1.47 1.59 1.47h5.53c1.05 0 1.61-.42 1.61-1.47v-7.44c-.01-1.05-.56-1.54-1.61-1.54zM159.75 43.61h-6.71c-.59 0-1.1.44-1.1 1.03v31.97c0 .59.51 1.02 1.1 1.02h6.71c.59 0 1.01-.43 1.01-1.02V44.64c0-.59-.42-1.03-1.01-1.03zM221.66 42.21c-3.34 0-7.04.88-8.71 1.33l-.11-14.36c0-.66-.46-1.07-1.05-1.07h-.26l-6.45 1.13c-.79.13-1.12.61-1.12 1.39v40.72c0 2.83.2 4.41 3.76 5.53 2.43.85 6.91 1.58 11.91 1.58 13.22 0 16.19-5.92 16.19-18.55-.02-12.9-3.83-17.7-14.16-17.7zm-2.63 30.13c-3.55 0-6.25-.66-6.25-.66V49.44s4.01-1.05 7.04-1.05c5.66 0 7.04 1.97 7.04 11.71 0 10-1.91 12.24-7.83 12.24zM267.37 44.05c-2.11-1.18-5.25-1.84-9.92-1.84-6.71 0-12.78 1.65-14.36 2.24-.33.13-.81.4-.81.99v.27l.94 4.08c.07.46.41.59.74.59.13 0 .27-.06.47-.06 1.98-.53 6.85-1.84 11.32-1.84 2.37 0 3.97.2 5.02.66 1.65.72 1.86 2.04 1.86 3.88v2.11l-11.73 1.91c-5.26.85-10.6 1.78-10.6 10.26 0 10.46 8.74 11.18 15.85 11.18 3.68 0 6.81-.39 9.11-.92 4.48-1.05 6.09-1.91 6.09-6.84V52.54c.01-3.56-.62-6.65-3.98-8.49zm-4.74 27.76c-1.4.46-3.51.92-6.07.92-3.16 0-7.31-.39-7.31-5.53 0-4.28 2.51-4.67 5.21-5.07l8.17-1.32v11zM294.65 42.21c-4.21 0-9.73.79-13.09 1.71-3.68.99-4.93 1.84-4.93 4.34v28.35c0 .59.44 1.02 1.09 1.02h6.71c.59 0 1.03-.43 1.03-1.02V49.38s4.27-1.12 8.21-1.12c3.49 0 4.92 1.31 4.92 5.13v23.22c0 .59.44 1.02 1.03 1.02h6.78c.59 0 1.02-.43 1.02-1.02v-24.4c.01-7.9-4.54-10-12.77-10zM344.17 76.68L329.4 59.84l14.05-15.66c.07-.13.13-.2.13-.33 0-.26-.2-.59-.66-.59l-8.02-.2c-.33 0-.59.06-.86.46L322.03 57.4h-.6V29.25c0-.73-.42-1.14-1.01-1.14h-.27l-6.44 1.13c-.79.2-1.12.61-1.12 1.39v45.99c0 .59.45 1.02 1.05 1.02h6.78c.65 0 1.01-.43 1.01-1.02v-13.3h.6l11.81 13.9c.33.4.66.42.99.42h8.81c.39 0 .66-.35.66-.61 0-.13-.06-.29-.13-.35zM195.58 43.48c-1.77-.58-3.9-1.03-6.4-1.37-2.5-.34-4.89-.5-7.19-.5-3.08 0-5.63.43-7.67 1.29-2.04.86-3.66 2.1-4.86 3.71-1.2 1.61-2.04 3.55-2.52 5.83-.48 2.28-.72 4.83-.72 7.67 0 2.69.21 5.12.61 7.31.41 2.18 1.15 4.06 2.23 5.62 1.08 1.56 2.55 2.77 4.43 3.64 1.87.86 4.27 1.29 7.2 1.29 1.15 0 2.46-.12 3.92-.36 1.29-.21 2.72-.6 4.28-1.14.04-.02.07-.03.11-.05l.13 3.32c0 1.1.1 2.06-.12 2.88-.22.81-.51 1.47-1.08 1.98-.57.5-1.3.88-2.29 1.12-.98.24-2.22.36-3.75.36-1.39 0-2.98-.06-4.77-.18-1.8-.12-3.51-.3-5.14-.54-.67-.1-1.16-.1-1.47 0-.31.1-.52.43-.61 1.01l-.58 2.66c-.09.38-.07.76.07 1.12.14.36.6.68 1.37.97 1.49.62 3.32 1.06 5.51 1.3 2.18.24 4.21.36 6.08.36 3.46 0 6.18-.36 8.17-1.08 1.99-.72 3.52-1.73 4.57-3.03 1.05-1.29 1.7-2.83 1.99-4.61.29-1.78.41-3.7.41-5.76V46.71c0-.67-.08-1.31-.3-1.91-.22-.59-.75-1.04-1.61-1.32zm-6.49 26.34c-.75.43-2.78.75-4.2.94-1.42.19-2.54.29-3.59.29-1.25 0-2.26-.19-3.14-.57-.89-.38-1.58-1.02-2.13-1.91-.55-.89-.95-2.08-1.21-3.56-.26-1.49-.39-3.34-.39-5.54 0-2.35.21-4.25.62-5.69.41-1.44.97-2.53 1.69-3.28.72-.74 1.56-1.23 2.52-1.48.96-.24 1.99-.36 3.1-.36 1.15 0 2.13.06 3.41.18 1.27.12 2.58.28 3.33.47v20.51z" fill="#003B5E"></path></svg>
